<?xml version="1.0" standalone="no"?>
<!DOCTYPE svg PUBLIC "-//W3C//DTD SVG 20010904//EN"
 "http://www.w3.org/TR/2001/REC-SVG-20010904/DTD/svg10.dtd">
<svg version="1.0" xmlns="http://www.w3.org/2000/svg"
 width="1368.000000pt" height="332.000000pt" viewBox="0 0 1368.000000 332.000000"
 preserveAspectRatio="xMidYMid meet">

<g transform="translate(0.000000,332.000000) scale(0.100000,-0.100000)"
fill="#000000" stroke="none">
<path d="M1650 2849 c-414 -36 -777 -322 -913 -719 -131 -383 -29 -814 262
-1100 295 -291 702 -386 1091 -253 488 166 788 668 705 1179 -16 99 -54 221
-92 299 -75 151 -231 330 -366 418 -208 138 -442 198 -687 176z m205 -69 c295
-34 556 -193 719 -438 57 -87 98 -174 133 -289 24 -80 27 -103 27 -258 0 -147
-3 -182 -22 -255 -91 -335 -339 -601 -658 -705 -252 -82 -553 -55 -783 71
-239 130 -418 362 -493 634 -20 73 -23 108 -23 245 0 178 15 251 78 401 133
315 445 550 787 593 94 12 134 12 235 1z"/>
<path d="M1685 2571 c-49 -22 -75 -65 -75 -123 l0 -43 -159 -93 c-87 -50 -162
-92 -167 -92 -6 0 -27 9 -49 20 -49 25 -68 25 -121 -1 -104 -50 -105 -192 -2
-245 l28 -15 0 -195 c0 -192 0 -195 -22 -203 -58 -23 -95 -98 -78 -161 22 -82
116 -123 199 -85 l39 17 164 -89 163 -90 5 -56 c4 -44 11 -62 35 -86 59 -62
147 -60 204 4 25 29 31 45 31 83 l0 47 157 90 c86 50 163 91 170 93 8 2 25 -4
39 -13 35 -23 110 -22 142 2 46 34 65 69 65 118 0 52 -21 88 -71 120 l-31 20
-1 192 0 191 34 20 c47 28 69 65 69 116 0 56 -28 102 -78 126 -52 25 -68 25
-121 -1 l-43 -20 -166 92 -165 92 0 45 c0 55 -23 94 -70 121 -46 26 -73 26
-125 2z m106 -69 c48 -40 17 -122 -46 -122 -40 0 -68 30 -68 72 0 36 32 68 68
68 13 0 33 -8 46 -18z m-106 -178 c27 -18 90 -15 140 6 29 12 37 8 190 -78
l160 -90 5 -49 c6 -58 29 -97 70 -118 l30 -16 0 -194 0 -194 -30 -16 c-41 -21
-70 -71 -70 -121 l0 -40 -159 -92 c-87 -51 -165 -92 -173 -92 -8 0 -23 7 -34
15 -25 19 -95 19 -137 -1 l-33 -16 -164 90 -165 89 -5 56 c-5 58 -22 86 -72
115 l-28 16 0 193 0 192 30 16 c41 21 70 71 70 120 l0 40 158 92 c86 50 165
92 175 92 10 1 29 -6 42 -15z m-465 -154 c45 -45 18 -120 -44 -120 -37 0 -49
7 -65 37 -35 67 56 136 109 83z m1145 -5 c30 -30 31 -54 4 -89 -15 -19 -30
-26 -53 -26 -64 0 -92 74 -46 120 27 27 66 25 95 -5z m-1167 -641 c32 -9 55
-56 42 -88 -14 -38 -53 -60 -87 -49 -58 19 -66 103 -12 130 28 15 27 15 57 7z
m1146 -4 c38 -14 52 -51 36 -90 -16 -39 -49 -53 -89 -39 -53 19 -59 88 -9 123
26 19 29 19 62 6z m-534 -370 c33 -81 -85 -137 -126 -59 -12 25 -13 34 -2 56
28 59 104 60 128 3z"/>
<path d="M1687 2140 c-118 -20 -235 -116 -276 -225 -24 -64 -28 -165 -9 -229
31 -105 117 -196 225 -236 125 -47 289 -7 376 90 67 75 90 131 95 230 6 120
-19 184 -102 266 -88 87 -195 123 -309 104z m82 -77 c11 -10 27 -35 36 -55
l15 -38 -74 0 -75 0 16 38 c16 38 41 72 53 72 4 0 17 -8 29 -17z m-154 -50
c-12 -34 -17 -38 -51 -41 l-38 -3 19 22 c15 17 73 59 81 59 1 0 -4 -17 -11
-37z m322 -9 l38 -34 -44 2 c-41 3 -45 6 -57 39 -11 34 -11 36 6 32 11 -3 36
-20 57 -39z m-354 -111 c3 -5 2 -23 0 -40 -5 -33 -5 -33 -64 -33 -64 0 -68 5
-49 54 8 23 15 26 59 26 27 0 52 -3 54 -7z m255 -35 l3 -38 -95 0 c-95 0 -96
0 -96 24 0 54 6 57 99 54 l86 -3 3 -37z m182 23 c5 -11 10 -29 10 -40 0 -19
-6 -21 -59 -21 -57 0 -59 1 -65 31 -8 43 -2 49 54 49 39 0 52 -4 60 -19z
m-440 -143 c0 -7 3 -23 6 -35 6 -22 4 -23 -54 -23 -53 0 -60 2 -66 23 -12 44
-9 47 54 47 41 0 60 -4 60 -12z m258 -20 l-3 -33 -92 -3 -93 -3 0 36 0 35 96
0 95 0 -3 -32z m192 20 c-1 -50 -11 -58 -72 -58 -58 0 -60 1 -54 23 3 12 6 28
6 35 0 8 19 12 60 12 41 0 60 -4 60 -12z m-417 -173 l16 -45 -27 14 c-15 8
-40 28 -56 45 l-30 31 41 0 c40 0 42 -2 56 -45z m194 15 c-18 -85 -73 -106
-107 -40 -33 65 -29 70 46 70 l67 0 -6 -30z m157 15 c-6 -14 -94 -78 -101 -72
-1 2 5 22 14 45 15 39 19 42 54 42 30 0 37 -3 33 -15z"/>
<path d="M3480 1764 l0 -527 198 6 c279 7 357 32 483 157 107 105 153 219 151
375 -2 238 -149 435 -371 497 -53 15 -102 18 -263 18 l-198 0 0 -526z m382
407 c162 -27 286 -150 319 -319 37 -193 -51 -373 -222 -452 -69 -31 -79 -33
-216 -38 l-143 -5 0 412 0 411 103 0 c56 0 128 -4 159 -9z"/>
<path d="M4646 1778 c-126 -282 -230 -519 -233 -525 -4 -10 12 -13 60 -13 l64
0 54 125 54 125 281 0 281 0 54 -122 55 -123 62 -3 c34 -2 62 1 62 5 0 5 -103
240 -229 523 l-229 515 -54 3 -55 3 -227 -513z m402 77 c60 -137 107 -253 105
-257 -6 -12 -441 -10 -448 2 -3 5 39 112 93 237 129 295 124 285 133 276 4 -5
57 -120 117 -258z"/>
<path d="M5540 2235 l0 -55 145 0 145 0 0 -470 0 -470 60 0 60 0 0 470 0 470
145 0 145 0 0 55 0 55 -350 0 -350 0 0 -55z"/>
<path d="M6796 2282 c-9 -15 -448 -1007 -453 -1025 -5 -16 1 -18 58 -15 l63 3
55 123 54 122 281 0 281 0 54 -125 54 -125 64 0 c48 0 64 3 60 13 -2 6 -107
243 -233 525 l-228 512 -53 0 c-28 0 -54 -4 -57 -8z m184 -440 c55 -128 98
-237 95 -242 -7 -11 -437 -15 -447 -4 -5 4 90 230 197 469 32 72 16 96 155
-223z"/>
<path d="M7460 2284 c0 -3 86 -130 190 -282 l190 -275 0 -244 0 -243 60 0 60
0 0 243 0 242 194 280 193 280 -60 3 c-33 2 -65 1 -72 -2 -7 -2 -79 -102 -160
-220 -82 -119 -151 -216 -155 -216 -3 0 -73 99 -155 220 l-150 219 -67 1 c-38
0 -68 -3 -68 -6z"/>
<path d="M8582 1786 c-123 -277 -226 -514 -229 -525 -5 -21 -3 -22 57 -19 l63
3 52 120 52 120 284 0 283 0 52 -120 51 -120 67 -3 66 -3 -12 30 c-7 16 -112
252 -233 525 l-220 496 -55 -1 -55 0 -223 -503z m396 77 c61 -141 109 -260
106 -265 -7 -10 -441 -11 -448 0 -5 9 215 522 224 522 3 0 56 -115 118 -257z"/>
<path d="M9500 2240 l0 -50 280 -2 279 -3 -291 -460 c-160 -253 -293 -466
-295 -472 -4 -10 79 -13 396 -13 l401 0 0 55 0 55 -300 0 c-165 0 -300 2 -300
5 0 2 122 197 271 432 150 235 282 445 296 466 l23 37 -380 0 -380 0 0 -50z"/>
<path d="M10412 1768 l3 -523 60 0 60 0 3 523 2 522 -65 0 -65 0 2 -522z"/>
<path d="M10720 1765 l0 -525 295 0 295 0 0 60 0 60 -235 0 -235 0 0 465 0
465 -60 0 -60 0 0 -525z"/>
<path d="M11460 1765 l0 -525 60 0 60 0 0 525 0 525 -60 0 -60 0 0 -525z"/>
<path d="M11770 1765 l0 -525 60 0 60 0 0 382 c0 230 4 378 9 373 5 -6 88
-176 184 -380 l175 -370 52 0 52 0 181 380 182 380 3 -382 2 -383 60 0 60 0 0
525 0 525 -59 0 -58 0 -205 -427 c-113 -235 -210 -429 -215 -430 -5 -2 -102
189 -215 424 l-205 428 -62 3 -61 3 0 -526z"/>
</g>
</svg>
