<?xml version="1.0" standalone="no"?>
<!DOCTYPE svg PUBLIC "-//W3C//DTD SVG 20010904//EN"
 "http://www.w3.org/TR/2001/REC-SVG-20010904/DTD/svg10.dtd">
<svg version="1.0" xmlns="http://www.w3.org/2000/svg"
 width="757.000000pt" height="184.000000pt" viewBox="0 0 757.000000 184.000000"
 preserveAspectRatio="xMidYMid meet">

<g transform="translate(0.000000,184.000000) scale(0.100000,-0.100000)"
fill="#000000" stroke="none">
<path d="M5950 1420 c-19 -19 -20 -33 -20 -419 0 -372 1 -400 18 -421 24 -30
68 -21 83 17 6 17 9 173 7 421 -3 376 -4 394 -22 408 -27 19 -42 18 -66 -6z"/>
<path d="M692 1414 c-38 -26 -22 -74 24 -74 45 0 58 50 19 76 -18 12 -24 11
-43 -2z"/>
<path d="M898 1419 c-21 -12 -24 -49 -6 -67 21 -21 57 -14 70 14 11 23 10 29
-11 45 -27 22 -30 22 -53 8z"/>
<path d="M3826 1364 c-22 -21 -22 -190 0 -284 26 -117 116 -213 225 -241 l49
-13 0 -123 c0 -111 2 -123 19 -133 27 -14 47 -13 65 6 13 12 16 39 16 133 l0
117 54 17 c104 33 179 111 211 221 19 63 21 286 3 304 -7 7 -24 12 -38 12 -44
0 -50 -16 -50 -125 0 -120 -20 -206 -59 -255 -72 -92 -218 -107 -317 -34 -60
44 -78 101 -84 257 -5 146 -9 157 -57 157 -12 0 -29 -7 -37 -16z"/>
<path d="M1490 1353 c-67 -34 -70 -51 -70 -384 0 -291 0 -297 23 -330 37 -56
76 -69 203 -69 138 0 201 11 281 51 148 72 223 258 182 451 -26 121 -92 209
-197 260 -66 33 -69 33 -227 36 -138 3 -165 1 -195 -15z m338 -88 c65 -20 115
-63 150 -129 25 -46 27 -61 27 -161 0 -100 -3 -115 -28 -167 -51 -104 -120
-138 -292 -145 -174 -7 -160 -35 -160 305 0 222 3 282 14 295 19 23 214 24
289 2z"/>
<path d="M2856 1355 c-13 -13 -16 -37 -16 -116 l0 -99 -31 0 c-42 0 -69 -17
-69 -43 0 -33 19 -47 61 -47 l37 0 4 -187 c2 -158 6 -193 21 -221 35 -63 117
-94 196 -73 85 23 142 88 111 126 -17 20 -54 19 -71 -2 -36 -43 -119 -51 -139
-13 -6 10 -10 98 -10 194 l0 176 76 0 c87 0 114 11 114 45 0 34 -27 45 -114
45 l-76 0 0 88 c0 50 -6 98 -13 112 -15 30 -58 38 -81 15z"/>
<path d="M480 1270 c-11 -11 -20 -29 -20 -40 0 -25 34 -60 58 -60 32 0 62 29
62 60 0 53 -62 78 -100 40z"/>
<path d="M677 1272 c-35 -38 -9 -102 40 -102 47 0 71 71 35 103 -24 22 -55 21
-75 -1z"/>
<path d="M880 1270 c-11 -11 -20 -29 -20 -40 0 -25 34 -60 58 -60 32 0 62 29
62 60 0 53 -62 78 -100 40z"/>
<path d="M1077 1272 c-34 -38 -10 -102 39 -102 25 0 38 10 54 39 26 50 -55
105 -93 63z"/>
<path d="M2340 1136 c-103 -29 -157 -69 -145 -105 10 -34 42 -35 108 -5 48 21
78 28 132 28 117 1 165 -34 165 -123 l0 -40 -37 22 c-33 19 -53 22 -143 22
-90 0 -112 -3 -152 -23 -55 -27 -87 -67 -99 -123 -28 -123 80 -229 231 -229
53 0 127 19 164 41 l30 18 18 -29 c19 -32 54 -40 76 -18 16 16 17 404 1 445
-14 38 -56 81 -104 105 -49 26 -180 33 -245 14z m217 -309 c77 -40 45 -139
-53 -166 -79 -22 -178 -8 -214 31 -36 39 -23 115 23 140 52 28 184 26 244 -5z"/>
<path d="M3380 1136 c-103 -29 -157 -69 -145 -105 10 -34 42 -35 108 -5 48 21
78 28 132 28 117 1 165 -34 165 -123 l0 -40 -37 22 c-33 19 -53 22 -143 22
-90 0 -112 -3 -152 -23 -82 -40 -116 -113 -97 -204 19 -87 115 -148 231 -148
53 0 139 22 169 44 22 15 23 14 41 -15 23 -38 65 -37 86 1 17 33 11 380 -7
425 -17 41 -58 83 -106 107 -49 26 -180 33 -245 14z m217 -309 c77 -40 45
-139 -53 -166 -79 -22 -178 -8 -214 31 -36 39 -23 115 23 140 52 28 184 26
244 -5z"/>
<path d="M4660 1134 c-30 -8 -74 -26 -98 -40 -36 -21 -43 -30 -40 -51 4 -38
30 -51 70 -34 109 45 144 53 201 47 71 -7 92 -18 117 -59 16 -25 29 -97 18
-97 -2 0 -27 9 -56 20 -74 28 -189 27 -261 -3 -102 -42 -144 -134 -106 -233
43 -114 221 -158 368 -91 53 24 53 24 63 4 15 -32 39 -43 68 -29 l26 12 0 202
c0 177 -3 208 -19 244 -47 104 -196 149 -351 108z m225 -308 c92 -61 29 -162
-107 -173 -120 -10 -183 27 -181 105 1 49 37 81 99 90 63 10 158 -1 189 -22z"/>
<path d="M5716 1134 c-14 -13 -16 -53 -16 -279 0 -226 2 -266 16 -279 8 -9 24
-16 34 -16 10 0 26 7 34 16 14 13 16 53 16 279 0 226 -2 266 -16 279 -8 9 -24
16 -34 16 -10 0 -26 -7 -34 -16z"/>
<path d="M6186 1134 c-14 -13 -16 -53 -16 -279 0 -226 2 -266 16 -279 8 -9 24
-16 34 -16 10 0 26 7 34 16 14 13 16 53 16 278 0 242 -1 264 -18 279 -23 21
-46 22 -66 1z"/>
<path d="M6398 1139 c-16 -9 -18 -33 -18 -279 0 -231 2 -271 16 -284 8 -9 24
-16 34 -16 44 0 50 22 50 183 0 84 5 170 11 192 24 86 127 148 185 110 46 -30
54 -68 54 -268 0 -172 1 -185 20 -202 16 -15 26 -17 48 -9 l27 9 5 190 c5 203
8 215 60 259 64 53 144 41 167 -24 7 -22 12 -106 12 -227 1 -180 2 -193 20
-203 27 -14 47 -13 65 6 13 13 16 46 16 208 0 262 -16 310 -112 351 -69 28
-144 13 -217 -44 l-41 -33 -25 30 c-65 77 -188 76 -272 -1 l-23 -20 0 25 c0
27 -28 58 -51 58 -8 0 -22 -5 -31 -11z"/>
<path d="M5118 1133 c-10 -2 -21 -15 -24 -29 -12 -49 2 -53 206 -56 275 -4
277 -20 18 -159 -210 -113 -228 -129 -228 -199 0 -45 4 -56 30 -80 39 -37 62
-40 275 -40 164 0 185 2 206 19 21 16 22 22 11 45 l-12 26 -174 0 c-199 0
-236 5 -236 30 0 25 15 35 204 136 196 105 221 129 213 202 -3 24 -13 52 -23
64 -38 42 -73 48 -266 47 -101 -1 -191 -3 -200 -6z"/>
<path d="M486 1079 c-46 -36 -23 -99 36 -99 49 0 76 61 41 92 -31 26 -51 28
-77 7z"/>
<path d="M661 1074 c-12 -15 -21 -34 -21 -44 0 -10 9 -29 21 -44 41 -52 129
-23 129 42 0 67 -88 98 -129 46z"/>
<path d="M870 1080 c-37 -37 -22 -100 27 -118 35 -12 67 0 88 32 45 69 -57
144 -115 86z"/>
<path d="M1100 1092 c-39 -11 -53 -68 -24 -96 20 -20 68 -21 84 -1 16 19 16
61 1 79 -14 17 -40 24 -61 18z"/>
<path d="M336 1058 c-13 -19 -14 -25 -2 -43 26 -39 76 -26 76 19 0 46 -48 62
-74 24z"/>
<path d="M1244 1072 c-19 -13 -23 -39 -8 -61 26 -36 74 -21 74 24 0 36 -37 57
-66 37z"/>
<path d="M663 874 c-20 -20 -24 -31 -19 -57 9 -44 29 -61 72 -61 68 0 97 72
49 119 -31 32 -69 32 -102 -1z"/>
<path d="M872 877 c-12 -13 -22 -36 -22 -51 0 -29 39 -76 64 -76 30 0 65 23
76 49 30 74 -64 136 -118 78z"/>
<path d="M480 870 c-24 -24 -25 -48 -4 -78 30 -43 104 -17 104 36 0 28 -34 62
-60 62 -11 0 -29 -9 -40 -20z"/>
<path d="M1082 874 c-14 -10 -22 -26 -22 -44 0 -72 94 -82 115 -13 4 17 -1 29
-19 48 -29 29 -43 31 -74 9z"/>
<path d="M330 851 c-20 -39 22 -82 60 -61 22 12 27 49 8 68 -18 18 -56 14 -68
-7z"/>
<path d="M1230 851 c-20 -38 16 -76 58 -60 24 9 30 47 10 67 -18 18 -56 14
-68 -7z"/>
<path d="M474 665 c-20 -31 -15 -53 17 -77 23 -17 30 -18 50 -8 30 16 39 29
39 56 0 52 -77 73 -106 29z"/>
<path d="M670 675 c-17 -21 -16 -64 3 -82 8 -9 27 -15 42 -15 15 0 34 6 42 15
21 21 20 68 -3 84 -24 17 -69 17 -84 -2z"/>
<path d="M874 665 c-19 -29 -11 -60 20 -81 56 -36 117 43 70 90 -24 25 -71 20
-90 -9z"/>
<path d="M1076 674 c-26 -26 -17 -76 16 -92 51 -24 100 25 76 76 -16 33 -66
42 -92 16z"/>
<path d="M686 514 c-30 -30 -13 -74 29 -74 42 0 59 44 29 74 -8 9 -22 16 -29
16 -7 0 -21 -7 -29 -16z"/>
<path d="M898 519 c-21 -12 -24 -49 -6 -67 39 -39 100 17 63 58 -20 22 -32 24
-57 9z"/>
</g>
</svg>
